<svg width="24" height="18" viewBox="0 0 24 18" fill="none" xmlns="http://www.w3.org/2000/svg">
<path d="M14.9795 9.20217L16.3427 7.83905C16.4419 8.21011 16.5 8.59805 16.5 9.00005C16.5 11.4814 14.4814 13.5 12 13.5C11.598 13.5 11.21 13.4419 10.839 13.3427L12.2021 11.9796C12.9226 11.9307 13.601 11.6223 14.1116 11.1117C14.6223 10.601 14.9306 9.92268 14.9795 9.20217ZM23.9055 8.63573C23.8132 8.4698 22.5049 6.17723 19.9474 4.23436L18.8559 5.3258C20.7208 6.69698 21.9024 8.29617 22.3676 9.00117C21.4787 10.3547 17.9915 15 12 15C11.1015 15 10.266 14.8851 9.47979 14.7017L8.24735 15.9342C9.38042 16.2816 10.6258 16.5 12 16.5C19.8512 16.5 23.7437 9.65555 23.9055 9.36436C23.9675 9.25294 24 9.12755 24 9.00005C24 8.87255 23.9675 8.74716 23.9055 8.63573ZM20.7802 1.2803L4.28023 17.7803C4.13379 17.9267 3.94179 18 3.74998 18C3.55817 18 3.36617 17.9267 3.21973 17.7803C3.15004 17.7107 3.09476 17.628 3.05704 17.5371C3.01932 17.4461 2.99991 17.3485 2.99991 17.25C2.99991 17.1516 3.01932 17.054 3.05704 16.963C3.09476 16.8721 3.15004 16.7894 3.21973 16.7198L5.31898 14.6205C1.92523 12.5717 0.200791 9.5558 0.0944788 9.36436C0.0325172 9.2529 0 9.12748 0 8.99995C0 8.87243 0.0325172 8.74701 0.0944788 8.63555C0.256291 8.34455 4.14879 1.50005 12 1.50005C14.03 1.50005 15.7884 1.96317 17.2916 2.64792L19.7197 0.219797C20.0128 -0.0732656 20.4874 -0.0732656 20.7802 0.219797C21.0731 0.512859 21.0733 0.987422 20.7802 1.2803ZM6.43742 13.5021L8.33623 11.6033C7.81179 10.8675 7.49998 9.97036 7.49998 9.00005C7.49998 6.51867 9.5186 4.50005 12 4.50005C12.9703 4.50005 13.8675 4.81186 14.6032 5.33611L16.1387 3.80067C14.9255 3.31486 13.547 3.00005 12 3.00005C6.00842 3.00005 2.52129 7.64536 1.63254 8.99892C2.19692 9.8543 3.81917 12.0195 6.43742 13.5021ZM9.42504 10.5143L13.5142 6.42511C13.0682 6.16167 12.5546 6.00005 12 6.00005C10.3459 6.00005 8.99998 7.34592 8.99998 9.00005C8.99998 9.55467 9.1616 10.0682 9.42504 10.5143Z" fill="#DF9923"/>
</svg>
