<svg width="20" height="20" viewBox="0 0 20 20" fill="none" xmlns="http://www.w3.org/2000/svg">
<path d="M15.4168 8.37582V5.41664C15.4168 2.43 12.9868 0 10.0001 0C7.01343 0 4.58343 2.43 4.58343 5.41668V8.37586C3.63343 8.56918 2.91675 9.41168 2.91675 10.4167V17.9167C2.91679 19.065 3.85093 20 5.00011 20H15.0001C16.1493 20 17.0834 19.065 17.0834 17.9167V10.4167C17.0834 9.41082 16.3668 8.56918 15.4168 8.37582ZM5.41679 5.41668C5.41679 2.88918 7.47347 0.833359 10.0001 0.833359C12.5267 0.833359 14.5834 2.88918 14.5834 5.41668V8.33336H13.7501V5.41668C13.7501 3.34918 12.0676 1.66668 10.0001 1.66668C7.93261 1.66668 6.25011 3.34918 6.25011 5.41668V8.33336H5.41679V5.41668ZM12.9168 5.41668V8.33336H7.08343V5.41668C7.08343 3.80832 8.39179 2.5 10.0001 2.5C11.6084 2.5 12.9168 3.80832 12.9168 5.41668ZM16.2501 17.9167C16.2501 18.6059 15.6893 19.1667 15.0001 19.1667H5.00011C4.31093 19.1667 3.75011 18.6059 3.75011 17.9167V10.4167C3.75011 9.7275 4.31093 9.16668 5.00011 9.16668H15.0001C15.6893 9.16668 16.2501 9.7275 16.2501 10.4167V17.9167Z" fill="black"/>
<path d="M10.0001 10.8333C8.85089 10.8333 7.91675 11.7683 7.91675 12.9166C7.91675 13.7083 8.37925 14.4274 9.07593 14.7758L8.75425 17.0249C8.74566 17.084 8.74992 17.1442 8.76675 17.2014C8.78358 17.2587 8.81257 17.3116 8.85175 17.3566C8.89099 17.4016 8.9394 17.4377 8.99373 17.4624C9.04806 17.4871 9.10706 17.4999 9.16675 17.4999H10.8334C10.9542 17.4999 11.0692 17.4466 11.1484 17.3558C11.1877 17.3108 11.2167 17.2578 11.2335 17.2006C11.2503 17.1433 11.2546 17.0831 11.2459 17.0241L10.9242 14.7749C11.6209 14.4274 12.0834 13.7082 12.0834 12.9166C12.0834 11.7683 11.1492 10.8333 10.0001 10.8333ZM10.3484 14.1091C10.1501 14.1674 10.0242 14.3633 10.0534 14.5683L10.3534 16.6666H9.64671L9.94671 14.5683C9.97671 14.3633 9.85003 14.1675 9.65171 14.1091C9.11257 13.9516 8.75007 13.4724 8.75007 12.9166C8.75007 12.2274 9.31089 11.6666 10.0001 11.6666C10.6892 11.6666 11.2501 12.2274 11.2501 12.9166C11.2501 13.4724 10.8876 13.9516 10.3484 14.1091Z" fill="black"/>
</svg>
