<svg width="20" height="20" viewBox="0 0 20 20" fill="none" xmlns="http://www.w3.org/2000/svg">
<path d="M10 10C10.8653 10 11.7112 9.74341 12.4307 9.26268C13.1501 8.78195 13.7109 8.09867 14.042 7.29924C14.3731 6.49982 14.4598 5.62015 14.291 4.77148C14.1222 3.92281 13.7055 3.14326 13.0936 2.53141C12.4818 1.91956 11.7022 1.50288 10.8536 1.33407C10.0049 1.16526 9.12522 1.2519 8.32579 1.58303C7.52637 1.91416 6.84308 2.47492 6.36235 3.19438C5.88162 3.91385 5.62503 4.75971 5.62503 5.625C5.62636 6.78492 6.08772 7.89695 6.9079 8.71713C7.72809 9.53732 8.84012 9.99868 10 10ZM10 2.5C10.6181 2.5 11.2223 2.68328 11.7362 3.02666C12.2501 3.37004 12.6506 3.8581 12.8872 4.42912C13.1237 5.00013 13.1856 5.62847 13.065 6.23466C12.9444 6.84085 12.6468 7.39767 12.2097 7.83471C11.7727 8.27175 11.2159 8.56938 10.6097 8.68996C10.0035 8.81053 9.37517 8.74865 8.80415 8.51213C8.23313 8.2756 7.74507 7.87506 7.40169 7.36116C7.05831 6.84726 6.87503 6.24307 6.87503 5.625C6.87602 4.7965 7.20558 4.00223 7.79142 3.41639C8.37726 2.83055 9.17154 2.50099 10 2.5ZM17.7644 16.3313C17.227 14.6992 16.1859 13.2797 14.7907 12.2768C13.3955 11.2739 11.7182 10.7393 10 10.75C8.28183 10.7393 6.60452 11.2739 5.20934 12.2768C3.81416 13.2797 2.77302 14.6992 2.23566 16.3313C2.14576 16.6052 2.12285 16.8966 2.16885 17.1812C2.21485 17.4658 2.32842 17.7352 2.50003 17.9669C2.67563 18.2087 2.90583 18.4057 3.17191 18.5418C3.43798 18.6778 3.73243 18.7492 4.03128 18.75H15.9688C16.2676 18.7492 16.5621 18.6778 16.8282 18.5418C17.0942 18.4057 17.3244 18.2087 17.5 17.9669C17.6716 17.7352 17.7852 17.4658 17.8312 17.1812C17.8772 16.8966 17.8543 16.6052 17.7644 16.3313ZM16.4894 17.2325C16.4298 17.315 16.3516 17.3822 16.2612 17.4286C16.1707 17.4751 16.0705 17.4996 15.9688 17.5H4.03128C3.92957 17.4996 3.82939 17.4751 3.73891 17.4286C3.64844 17.3822 3.57023 17.315 3.51066 17.2325C3.45582 17.1602 3.41928 17.0758 3.40415 16.9863C3.38902 16.8968 3.39576 16.805 3.42378 16.7188C3.88878 15.3433 4.77335 14.1482 5.95302 13.3018C7.1327 12.4553 8.54809 12.0001 10 12.0001C11.452 12.0001 12.8674 12.4553 14.047 13.3018C15.2267 14.1482 16.1113 15.3433 16.5763 16.7188C16.6043 16.805 16.611 16.8968 16.5959 16.9863C16.5808 17.0758 16.5442 17.1602 16.4894 17.2325Z" fill="black"/>
</svg>
