<svg width="35" height="38" viewBox="0 0 35 38" fill="none" xmlns="http://www.w3.org/2000/svg">
<path fill-rule="evenodd" clip-rule="evenodd" d="M0 19.4804C0 9.26979 7.83504 0.992378 17.5 0.992378C27.165 0.992378 35 9.26979 35 19.4804C35 29.6911 27.165 37.9685 17.5 37.9685C7.83504 37.9685 0 29.6911 0 19.4804ZM17.5009 9.62014C14.9661 9.62014 14.6479 9.63184 13.6524 9.67968C12.6588 9.72775 11.9806 9.89399 11.3871 10.1378C10.7732 10.3896 10.2525 10.7266 9.73372 11.2748C9.21455 11.8229 8.89561 12.373 8.65645 13.0213C8.42508 13.6485 8.26758 14.3652 8.22289 15.4145C8.17833 16.4663 8.16667 16.8026 8.16667 19.4805C8.16667 22.1584 8.17797 22.4935 8.22303 23.5453C8.26875 24.595 8.42603 25.3115 8.65667 25.9385C8.89525 26.587 9.21411 27.1371 9.73314 27.6852C10.2517 28.2337 10.7724 28.5714 11.3859 28.8233C11.9798 29.0671 12.6582 29.2333 13.6516 29.2813C14.6472 29.3292 14.9651 29.341 17.4997 29.341C20.0347 29.341 20.3518 29.3292 21.3474 29.2813C22.341 29.2333 23.02 29.0671 23.6139 28.8233C24.2276 28.5714 24.7475 28.2337 25.2661 27.6852C25.7852 27.1371 26.1042 26.587 26.3433 25.9387C26.5728 25.3115 26.7303 24.5948 26.777 23.5455C26.8217 22.4937 26.8333 22.1584 26.8333 19.4805C26.8333 16.8026 26.8217 16.4666 26.777 15.4148C26.7303 14.365 26.5728 13.6485 26.3433 13.0216C26.1042 12.373 25.7852 11.8229 25.2661 11.2748C24.7469 10.7263 24.2277 10.3895 23.6133 10.1378C23.0183 9.89399 22.3397 9.72775 21.3461 9.67968C20.3505 9.63184 20.0336 9.62014 17.498 9.62014H17.5009Z" fill="#D39C41"/>
<path fill-rule="evenodd" clip-rule="evenodd" d="M16.6636 11.3971C16.9121 11.3967 17.1894 11.3971 17.5009 11.3971C19.9929 11.3971 20.2883 11.4066 21.2724 11.4538C22.1824 11.4978 22.6763 11.6584 23.0053 11.7933C23.4409 11.9721 23.7514 12.1857 24.0779 12.5308C24.4045 12.8759 24.6068 13.2046 24.7763 13.6648C24.9041 14.0119 25.0563 14.5337 25.0977 15.4951C25.1424 16.5345 25.1522 16.8468 25.1522 19.4783C25.1522 22.1097 25.1424 22.422 25.0977 23.4615C25.0561 24.4228 24.9041 24.9447 24.7763 25.2918C24.6072 25.752 24.4045 26.0796 24.0779 26.4246C23.7512 26.7697 23.4411 26.9833 23.0053 27.162C22.6767 27.2976 22.1824 27.4578 21.2724 27.5018C20.2885 27.549 19.9929 27.5593 17.5009 27.5593C15.0087 27.5593 14.7133 27.549 13.7295 27.5018C12.8195 27.4574 12.3255 27.2967 11.9964 27.1618C11.5608 26.983 11.2496 26.7694 10.923 26.4243C10.5963 26.0792 10.3941 25.7514 10.2246 25.291C10.0968 24.9438 9.94457 24.4221 9.90315 23.4607C9.85838 22.4212 9.84949 22.109 9.84949 19.4758C9.84949 16.8427 9.85838 16.5321 9.90315 15.4926C9.94472 14.5313 10.0968 14.0094 10.2246 13.6619C10.3937 13.2017 10.5963 12.873 10.923 12.5279C11.2496 12.1828 11.5608 11.9692 11.9964 11.79C12.3254 11.6544 12.8195 11.4942 13.7295 11.4501C14.5905 11.409 14.9241 11.3967 16.6636 11.3946V11.3971ZM22.483 13.0343C21.8647 13.0343 21.363 13.5637 21.363 14.2171C21.363 14.8704 21.8647 15.4004 22.483 15.4004C23.1014 15.4004 23.603 14.8704 23.603 14.2171C23.603 13.5639 23.1014 13.0343 22.483 13.0343ZM17.5009 14.4168C14.8539 14.4168 12.7078 16.6841 12.7078 19.4805C12.7078 22.277 14.8539 24.5432 17.5009 24.5432C20.1479 24.5432 22.2932 22.277 22.2932 19.4805C22.2932 16.6841 20.1479 14.4168 17.5009 14.4168Z" fill="#D39C41"/>
<path fill-rule="evenodd" clip-rule="evenodd" d="M17.501 16.1939C19.2192 16.1939 20.6122 17.6654 20.6122 19.4807C20.6122 21.2959 19.2192 22.7675 17.501 22.7675C15.7827 22.7675 14.3899 21.2959 14.3899 19.4807C14.3899 17.6654 15.7827 16.1939 17.501 16.1939Z" fill="#D39C41"/>
</svg>
