<svg width="76" height="76" viewBox="0 0 76 76" fill="none" xmlns="http://www.w3.org/2000/svg">
<path d="M27.5 22.5L31 15H60L56 22.5H27.5Z" fill="#D39C41"/>
<path d="M25 27L16 46.5H24.5L30 34.5H50.5L54 27H25Z" fill="#D39C41"/>
<path d="M32.5 39L29 46.5H45L48.5 39H32.5Z" fill="#D39C41"/>
<circle cx="38" cy="38" r="36.5" stroke="#D39C41" stroke-width="3"/>
<path d="M19.7762 51.99C19.9762 51.99 20.1295 52.0167 20.2362 52.07C20.3428 52.1233 20.3962 52.23 20.3962 52.39C20.3962 52.4433 20.3862 52.51 20.3662 52.59L20.3562 52.64L20.0962 53.78C20.0495 54 19.9728 54.17 19.8662 54.29C19.7662 54.41 19.5962 54.47 19.3562 54.47H18.1562L18.2862 53.94L18.3662 53.56L15.2662 53.57L14.9762 54.83L19.1862 54.82C19.3862 54.82 19.5428 54.85 19.6562 54.91C19.7762 54.9633 19.8362 55.0667 19.8362 55.22C19.8362 55.28 19.8262 55.3467 19.8062 55.42L19.6262 56.13L14.6862 56.14H13.3562C13.1628 56.14 13.0095 56.11 12.8962 56.05C12.7828 55.99 12.7262 55.8833 12.7262 55.73C12.7262 55.67 12.7362 55.6067 12.7562 55.54L12.9262 54.83L13.4262 52.7C13.4795 52.4733 13.5595 52.3 13.6662 52.18C13.7795 52.06 13.9595 52 14.2062 52L19.7762 51.99ZM17.2662 57.43L17.4862 56.48H19.5362L19.0962 58.3C19.0428 58.5267 18.9595 58.7 18.8462 58.82C18.7395 58.94 18.5628 59 18.3162 59L12.7462 59.01C12.5462 59.01 12.3928 58.9833 12.2862 58.93C12.1795 58.8767 12.1262 58.77 12.1262 58.61C12.1262 58.5567 12.1362 58.49 12.1562 58.41L12.1662 58.36L12.4262 57.22C12.4728 57 12.5462 56.83 12.6462 56.71C12.7528 56.59 12.9262 56.53 13.1662 56.53H14.3662L14.2362 57.06L14.1562 57.44L17.2662 57.43ZM28.0677 52C28.401 52 28.651 52.01 28.8177 52.03C28.9843 52.05 29.1077 52.0967 29.1877 52.17C29.2677 52.2367 29.3077 52.3433 29.3077 52.49C29.3077 52.5967 29.281 52.7633 29.2277 52.99L28.8277 54.73L28.5577 55.89C28.5043 56.1233 28.4043 56.2833 28.2577 56.37C28.111 56.4567 27.9243 56.4967 27.6977 56.49L23.4477 56.48L23.7077 55.33C23.761 55.0967 23.861 54.9367 24.0077 54.85C24.1543 54.7633 24.341 54.7233 24.5677 54.73H27.0077L27.3077 53.46L23.6777 53.45L22.4477 59H20.3977L21.9677 52H27.4877H28.0677ZM37.0841 51.99C37.2841 51.99 37.4375 52.0167 37.5441 52.07C37.6508 52.1233 37.7041 52.23 37.7041 52.39C37.7041 52.4433 37.6941 52.51 37.6741 52.59L37.4541 53.56L36.6141 57.24L36.3441 58.4C36.2908 58.6333 36.1908 58.7933 36.0441 58.88C35.8975 58.9667 35.7108 59.0067 35.4841 59L31.8041 58.99L32.0641 57.84C32.1175 57.6067 32.2175 57.4467 32.3641 57.36C32.5108 57.2733 32.6975 57.2333 32.9241 57.24H34.5841L35.4141 53.56L32.5741 53.57L31.3441 59H29.2941L30.5341 53.57L30.7341 52.7C30.7875 52.4733 30.8675 52.3 30.9741 52.18C31.0875 52.06 31.2675 52 31.5141 52L37.0841 51.99ZM45.3723 52C45.7057 52 45.9557 52.01 46.1223 52.03C46.289 52.05 46.4123 52.0967 46.4923 52.17C46.5723 52.2367 46.6123 52.3433 46.6123 52.49C46.6123 52.5967 46.5857 52.7633 46.5323 52.99L46.1323 54.73L45.8623 55.89C45.809 56.1233 45.709 56.2833 45.5623 56.37C45.4157 56.4567 45.229 56.4967 45.0023 56.49L40.7523 56.48L41.0123 55.33C41.0657 55.0967 41.1657 54.9367 41.3123 54.85C41.459 54.7633 41.6457 54.7233 41.8723 54.73H44.3123L44.6123 53.46L40.9823 53.45L39.7523 59H37.7023L39.2723 52H44.7923H45.3723ZM42.4423 56.79H44.5323L44.9123 59H43.4023C43.169 59 43.0023 58.9367 42.9023 58.81C42.8023 58.6833 42.7357 58.5033 42.7023 58.27L42.4423 56.79ZM47.7988 53.63L48.1488 52H55.1988L54.9688 53.04C54.9155 53.2733 54.8155 53.4333 54.6688 53.52C54.5222 53.6067 54.3355 53.6467 54.1088 53.64L47.7988 53.63ZM51.2588 59H49.2088L50.3188 54H52.3488L51.2588 59ZM62.8523 51.99C63.0523 51.99 63.2057 52.0167 63.3123 52.07C63.419 52.1233 63.4723 52.23 63.4723 52.39C63.4723 52.4433 63.4623 52.51 63.4423 52.59L63.4323 52.64L63.1723 53.78C63.1257 54 63.049 54.17 62.9423 54.29C62.8423 54.41 62.6723 54.47 62.4323 54.47H61.2323L61.3623 53.94L61.4423 53.56L58.3423 53.57L58.0523 54.83L62.2623 54.82C62.4623 54.82 62.619 54.85 62.7323 54.91C62.8523 54.9633 62.9123 55.0667 62.9123 55.22C62.9123 55.28 62.9023 55.3467 62.8823 55.42L62.7023 56.13L57.7623 56.14H56.4323C56.239 56.14 56.0857 56.11 55.9723 56.05C55.859 55.99 55.8023 55.8833 55.8023 55.73C55.8023 55.67 55.8123 55.6067 55.8323 55.54L56.0023 54.83L56.5023 52.7C56.5557 52.4733 56.6357 52.3 56.7423 52.18C56.8557 52.06 57.0357 52 57.2823 52L62.8523 51.99ZM60.3423 57.43L60.5623 56.48H62.6123L62.1723 58.3C62.119 58.5267 62.0357 58.7 61.9223 58.82C61.8157 58.94 61.639 59 61.3923 59L55.8223 59.01C55.6223 59.01 55.469 58.9833 55.3623 58.93C55.2557 58.8767 55.2023 58.77 55.2023 58.61C55.2023 58.5567 55.2123 58.49 55.2323 58.41L55.2423 58.36L55.5023 57.22C55.549 57 55.6223 56.83 55.7223 56.71C55.829 56.59 56.0023 56.53 56.2423 56.53H57.4423L57.3123 57.06L57.2323 57.44L60.3423 57.43Z" fill="#D39C41"/>
</svg>
