<svg width="35" height="38" viewBox="0 0 35 38" fill="none" xmlns="http://www.w3.org/2000/svg">
<path d="M17.5 0.992378C7.8321 0.992378 0 9.26787 0 19.4804C0 29.693 7.83323 37.9685 17.5 37.9685C27.1679 37.9685 35 29.693 35 19.4804C35 9.26787 27.1668 0.992378 17.5 0.992378ZM26.0953 13.6585L23.2231 27.9575C23.0108 28.9714 22.4395 29.2171 21.6424 28.74L17.2674 25.3334L15.1573 27.4804C14.9247 27.7261 14.7271 27.9348 14.2755 27.9348L14.586 23.2305L22.6935 15.4918C23.0469 15.1638 22.6156 14.9777 22.1494 15.3057L12.1292 21.9698L7.81065 20.5456C6.87242 20.2331 6.85097 19.5544 8.00823 19.0773L24.8805 12.2033C25.664 11.9051 26.3482 12.4049 26.0942 13.6573L26.0953 13.6585Z" fill="#D39C41"/>
</svg>
