<svg width="35" height="38" viewBox="0 0 35 38" fill="none" xmlns="http://www.w3.org/2000/svg">
<path fill-rule="evenodd" clip-rule="evenodd" d="M0 19.4804C0 9.26979 7.83504 0.992378 17.5 0.992378C27.165 0.992378 35 9.26979 35 19.4804C35 29.6911 27.165 37.9685 17.5 37.9685C7.83504 37.9685 0 29.6911 0 19.4804ZM18.4155 25.5477C18.4155 25.5477 18.7523 25.5088 18.9249 25.3166C19.0828 25.1405 19.0773 24.8082 19.0773 24.8082C19.0773 24.8082 19.0563 23.2565 19.7512 23.0273C20.4359 22.802 21.3151 24.528 22.2482 25.1917C22.953 25.6935 23.488 25.5836 23.488 25.5836L25.9814 25.5477C25.9814 25.5477 27.2851 25.4643 26.667 24.4011C26.6159 24.314 26.3064 23.6144 24.8137 22.1771C23.2497 20.6727 23.4597 20.9159 25.3423 18.3133C26.489 16.7283 26.9473 15.7607 26.8039 15.347C26.668 14.9512 25.8243 15.0563 25.8243 15.0563L23.0178 15.0743C23.0178 15.0743 22.8096 15.045 22.6554 15.1406C22.5047 15.2343 22.407 15.453 22.407 15.453C22.407 15.453 21.9633 16.6791 21.3708 17.7224C20.1209 19.9228 19.6215 20.0392 19.417 19.903C18.9413 19.5839 19.06 18.6229 19.06 17.9402C19.06 15.8072 19.3723 14.9181 18.4529 14.688C18.1479 14.6114 17.9234 14.5611 17.1427 14.5527C16.1412 14.5423 15.2939 14.5564 14.8137 14.7998C14.4942 14.9616 14.2476 15.3233 14.3983 15.3442C14.5836 15.3697 15.0036 15.4616 15.2264 15.7759C15.514 16.1821 15.5039 17.0929 15.5039 17.0929C15.5039 17.0929 15.6692 19.6038 15.1177 19.9152C14.7397 20.1292 14.2212 19.6927 13.1064 17.6959C12.5358 16.6735 12.1049 15.543 12.1049 15.543C12.1049 15.543 12.0218 15.3319 11.8729 15.2182C11.6931 15.081 11.442 15.0384 11.442 15.0384L8.77523 15.0563C8.77523 15.0563 8.37441 15.0677 8.22741 15.2485C8.09689 15.4085 8.21734 15.7408 8.21734 15.7408C8.21734 15.7408 10.3054 20.8071 12.67 23.3606C14.8383 25.701 17.2998 25.5477 17.2998 25.5477H18.4155Z" fill="#D39C41"/>
</svg>
